<svg xmlns="http://www.w3.org/2000/svg" width="16" height="14" viewBox="0 0 16 14">
  <path fill="#334E68" d="M6.5,14 L9,14 C9.827,14 10.5,13.327 10.5,12.5 C10.5,12.233 10.43,11.982 10.307,11.764 C10.724,11.497 11,11.03 11,10.5 C11,10.116 10.855,9.766 10.617,9.5 C10.855,9.234 11,8.884 11,8.5 C11,8.325 10.97,8.156 10.914,8 L14.5,8 C15.327,8 16,7.327 16,6.5 C16,5.673 15.327,5 14.5,5 L8.333,5 L9.799,2.25 C9.93,2.023 10,1.764 10,1.5 C10,0.673 9.327,0 8.5,0 C8.088,0 7.704,0.164 7.418,0.461 C7.414,0.465 7.411,0.469 7.407,0.473 L4,4.21 L4,3.5 C4,3.224 3.776,3 3.5,3 L0.5,3 C0.224,3 0,3.224 0,3.5 L0,13.5 C0,13.776 0.224,14 0.5,14 L3.5,14 C3.776,14 4,13.776 4,13.5 L4,12.809 L6.276,13.947 C6.345,13.982 6.422,14 6.5,14 Z M2.5,13 C2.224,13 2,12.776 2,12.5 C2,12.224 2.224,12 2.5,12 C2.776,12 3,12.224 3,12.5 C3,12.776 2.776,13 2.5,13 Z M6.618,13 L4,11.691 L4,5.694 L8.143,1.15 C8.238,1.053 8.364,1 8.5,1 C8.776,1 9,1.224 9,1.5 C9,1.585 8.98,1.666 8.939,1.739 C8.934,1.747 8.929,1.756 8.925,1.764 L7.059,5.264 C6.976,5.419 6.981,5.606 7.072,5.756 C7.163,5.906 7.325,5.999 7.501,5.999 L14.501,5.999 C14.777,5.999 15.001,6.223 15.001,6.499 C15.001,6.775 14.777,6.999 14.501,6.999 L9.501,6.999 C9.225,6.999 9.001,7.223 9.001,7.499 C9.001,7.775 9.225,7.999 9.501,7.999 C9.777,7.999 10.001,8.223 10.001,8.499 C10.001,8.775 9.777,8.999 9.501,8.999 C9.225,8.999 9.001,9.223 9.001,9.499 C9.001,9.775 9.225,9.999 9.501,9.999 C9.777,9.999 10.001,10.223 10.001,10.499 C10.001,10.775 9.777,10.999 9.501,10.999 L9.001,10.999 C8.725,10.999 8.501,11.223 8.501,11.499 C8.501,11.775 8.725,11.999 9.001,11.999 C9.277,11.999 9.501,12.223 9.501,12.499 C9.501,12.775 9.277,12.999 9.001,12.999 L6.619,12.999 L6.618,13 Z"/>
</svg>
