<svg xmlns="http://www.w3.org/2000/svg" width="12" height="12" viewBox="0 0 12 12">
  <path fill="#0078A8" d="M20.125,14.25 C19.5955,14.25 19.1185,14.46975 18.77725,14.82225 L13.72675,12.297 C13.7425,12.20025 13.75075,12.10125 13.75075,12 C13.75075,11.89875 13.7425,11.79975 13.72675,11.703 L18.77725,9.17775 C19.1185,9.53025 19.5955,9.75 20.125,9.75 C21.16075,9.75 22,8.91075 22,7.875 C22,6.83925 21.16075,6 20.125,6 C19.08925,6 18.25,6.83925 18.25,7.875 C18.25,7.97625 18.25825,8.07525 18.27325,8.172 L13.22275,10.69725 C12.8815,10.34475 12.4045,10.125 11.875,10.125 C10.83925,10.125 10,10.96425 10,12 C10,13.03575 10.83925,13.875 11.875,13.875 C12.4045,13.875 12.88225,13.65525 13.22275,13.30275 L18.27325,15.828 C18.2575,15.92475 18.25,16.02375 18.25,16.125 C18.25,17.16075 19.08925,18 20.125,18 C21.16075,18 22,17.16075 22,16.125 C22,15.08925 21.16075,14.25 20.125,14.25 Z" transform="translate(-10 -6)"/>
</svg>
